HIERARCHY
ROOT newVegas:Hips
{
	OFFSET 0.000000 96.479958 0.000000
	CHANNELS 6 Xposition Yposition Zposition Xrotation Yrotation Zrotation
	JOINT newVegas:Pelvis
	{
		OFFSET 0.000000 0.000000 0.000000
		CHANNELS 3 Xrotation Yrotation Zrotation
		JOINT newVegas:LeftUpLeg
		{
			OFFSET 18.735201 -5.666702 -4.541200
			CHANNELS 3 Xrotation Yrotation Zrotation
			JOINT newVegas:LeftLeg
			{
				OFFSET -0.021200 -31.938179 0.493100
				CHANNELS 3 Xrotation Yrotation Zrotation
				JOINT newVegas:LeftFoot
				{
					OFFSET 0.021200 -31.938179 -4.336299
					CHANNELS 3 Xrotation Yrotation Zrotation
					JOINT newVegas:LeftToeBase
					{
						OFFSET 0.943001 -26.722000 15.023500
						CHANNELS 3 Xrotation Yrotation Zrotation
						End Site
						{
							OFFSET 0.000000 30.670183 0.000000
						}
					}
				}
				JOINT newVegas:Left_PantLeg
				{
					OFFSET 0.663870 -9.044666 -1.108900
					CHANNELS 3 Xrotation Yrotation Zrotation
					End Site
					{
						OFFSET 1.415995 20.635357 0.000000
					}
				}
			}
		}
		JOINT newVegas:RightUpLeg
		{
			OFFSET -18.735201 -5.666702 -4.541200
			CHANNELS 3 Xrotation Yrotation Zrotation
			JOINT newVegas:RightLeg
			{
				OFFSET 0.018946 -31.938133 0.493100
				CHANNELS 3 Xrotation Yrotation Zrotation
				JOINT newVegas:RightFoot
				{
					OFFSET -0.018946 -31.938126 -4.336299
					CHANNELS 3 Xrotation Yrotation Zrotation
					JOINT newVegas:RightToeBase
					{
						OFFSET -0.943001 -26.722004 15.023500
						CHANNELS 3 Xrotation Yrotation Zrotation
						End Site
						{
							OFFSET 0.000000 30.670187 0.000000
						}
					}
				}
				JOINT newVegas:Right_PantLeg
				{
					OFFSET -0.661674 -9.044716 -1.108900
					CHANNELS 3 Xrotation Yrotation Zrotation
					End Site
					{
						OFFSET -1.415958 20.635269 0.000000
					}
				}
			}
		}
	}
	JOINT newVegas:Spine
	{
		OFFSET 0.000000 10.199997 -0.299500
		CHANNELS 3 Xrotation Yrotation Zrotation
		JOINT newVegas:Spine1
		{
			OFFSET 0.000000 11.900002 -1.516600
			CHANNELS 3 Xrotation Yrotation Zrotation
			JOINT newVegas:Spine2
			{
				OFFSET 0.000000 13.600006 -2.842500
				CHANNELS 3 Xrotation Yrotation Zrotation
				JOINT newVegas:Neck
				{
					OFFSET 0.000000 9.624100 -2.890100
					CHANNELS 3 Xrotation Yrotation Zrotation
					JOINT newVegas:Head
					{
						OFFSET 0.000000 14.068802 -1.351900
						CHANNELS 3 Xrotation Yrotation Zrotation
						JOINT newVegas:Hair_Back
						{
							OFFSET 0.000000 3.231903 -17.524799
							CHANNELS 3 Xrotation Yrotation Zrotation
							End Site
							{
								OFFSET 0.000000 19.849884 0.000000
							}
						}
						JOINT newVegas:Hair_Front
						{
							OFFSET 0.000000 31.260406 4.573800
							CHANNELS 3 Xrotation Yrotation Zrotation
							JOINT newVegas:Hair_Front1
							{
								OFFSET 0.000000 2.284103 11.993300
								CHANNELS 3 Xrotation Yrotation Zrotation
								JOINT newVegas:Hair_Front2
								{
									OFFSET 0.000000 2.284103 11.993300
									CHANNELS 3 Xrotation Yrotation Zrotation
									End Site
									{
										OFFSET 0.000000 12.208862 0.000000
									}
								}
							}
						}
						JOINT newVegas:Jowel
						{
							OFFSET 0.000000 -7.458206 6.864100
							CHANNELS 3 Xrotation Yrotation Zrotation
							End Site
							{
								OFFSET 0.000000 19.849884 0.000000
							}
						}
					}
				}
				JOINT newVegas:LeftShoulder
				{
					OFFSET 15.263000 10.923401 -0.547700
					CHANNELS 3 Xrotation Yrotation Zrotation
					JOINT newVegas:LeftArm
					{
						OFFSET 25.438599 -2.830597 -13.032500
						CHANNELS 3 Xrotation Yrotation Zrotation
						JOINT newVegas:LeftForeArm
						{
							OFFSET 29.960503 0.000000 0.000000
							CHANNELS 3 Xrotation Yrotation Zrotation
							JOINT newVegas:LeftHand
							{
								OFFSET 27.849251 0.000000 0.000000
								CHANNELS 3 Xrotation Yrotation Zrotation
								JOINT newVegas:LeftHandThumb1
								{
									OFFSET 4.487587 -3.305161 6.305391
									CHANNELS 3 Xrotation Yrotation Zrotation
									JOINT newVegas:LeftHandThumb2
									{
										OFFSET 5.480453 -3.164139 3.164143
										CHANNELS 3 Xrotation Yrotation Zrotation
										JOINT newVegas:LeftHandThumb3
										{
											OFFSET 5.159721 -2.978973 2.978967
											CHANNELS 3 Xrotation Yrotation Zrotation
											End Site
											{
												OFFSET 2.494507 5.926697 1.738678
											}
										}
									}
								}
								JOINT newVegas:LeftHandIndex1
								{
									OFFSET 18.578728 -0.527832 5.208049
									CHANNELS 3 Xrotation Yrotation Zrotation
									JOINT newVegas:LeftHandIndex2
									{
										OFFSET 3.192009 0.000000 0.000000
										CHANNELS 3 Xrotation Yrotation Zrotation
										JOINT newVegas:LeftHandIndex3
										{
											OFFSET 3.835129 0.000000 0.000000
											CHANNELS 3 Xrotation Yrotation Zrotation
											End Site
											{
												OFFSET -0.034599 3.816971 0.371180
											}
										}
									}
								}
								JOINT newVegas:LeftHandMiddle1
								{
									OFFSET 18.476105 0.000000 0.000000
									CHANNELS 3 Xrotation Yrotation Zrotation
									JOINT newVegas:LeftHandMiddle2
									{
										OFFSET 3.324875 0.000000 0.000000
										CHANNELS 3 Xrotation Yrotation Zrotation
										JOINT newVegas:LeftHandMiddle3
										{
											OFFSET 4.596550 0.000000 0.000000
											CHANNELS 3 Xrotation Yrotation Zrotation
											End Site
											{
												OFFSET 0.057701 4.578827 0.399218
											}
										}
									}
								}
								JOINT newVegas:LeftHandRing1
								{
									OFFSET 17.732719 0.121887 -4.201567
									CHANNELS 3 Xrotation Yrotation Zrotation
									JOINT newVegas:LeftHandRing2
									{
										OFFSET 2.733170 0.000000 0.000000
										CHANNELS 3 Xrotation Yrotation Zrotation
										JOINT newVegas:LeftHandRing3
										{
											OFFSET 3.178268 0.000000 0.000000
											CHANNELS 3 Xrotation Yrotation Zrotation
											End Site
											{
												OFFSET 0.119102 3.170624 0.185394
											}
										}
									}
								}
								JOINT newVegas:LeftHandPinky1
								{
									OFFSET 15.989624 -0.606689 -7.535461
									CHANNELS 3 Xrotation Yrotation Zrotation
									JOINT newVegas:LeftHandPinky2
									{
										OFFSET 2.538986 0.000000 0.000000
										CHANNELS 3 Xrotation Yrotation Zrotation
										JOINT newVegas:LeftHandPinky3
										{
											OFFSET 2.593102 0.000000 0.000000
											CHANNELS 3 Xrotation Yrotation Zrotation
											End Site
											{
												OFFSET -0.150902 2.584198 0.152708
											}
										}
									}
								}
							}
							JOINT newVegas:Left_Sleeve
							{
								OFFSET 0.267448 -0.649796 0.577675
								CHANNELS 3 Xrotation Yrotation Zrotation
								End Site
								{
									OFFSET 0.000000 15.991241 0.000000
								}
							}
							JOINT newVegas:Left_CapeC
							{
								OFFSET 15.715958 -8.608795 -6.935905
								CHANNELS 3 Xrotation Yrotation Zrotation
								JOINT newVegas:Left_CapeC1
								{
									OFFSET 0.000000 -8.688499 0.000000
									CHANNELS 3 Xrotation Yrotation Zrotation
									End Site
									{
										OFFSET 0.000000 8.688499 0.000000
									}
								}
							}
						}
						JOINT newVegas:Left_CapeB
						{
							OFFSET 26.118385 -8.608795 -7.079235
							CHANNELS 3 Xrotation Yrotation Zrotation
							JOINT newVegas:Left_CapeB1
							{
								OFFSET 0.000000 -8.688499 0.000000
								CHANNELS 3 Xrotation Yrotation Zrotation
								End Site
								{
									OFFSET 0.000000 8.688499 0.000000
								}
							}
						}
						JOINT newVegas:Left_CapeA
						{
							OFFSET 5.115639 -8.608795 -10.395809
							CHANNELS 3 Xrotation Yrotation Zrotation
							JOINT newVegas:Left_CapeA1
							{
								OFFSET 0.000000 -8.688499 0.000000
								CHANNELS 3 Xrotation Yrotation Zrotation
								End Site
								{
									OFFSET 0.000000 8.688499 0.000000
								}
							}
						}
					}
				}
				JOINT newVegas:RightShoulder
				{
					OFFSET -15.263000 10.923401 -0.547700
					CHANNELS 3 Xrotation Yrotation Zrotation
					JOINT newVegas:RightArm
					{
						OFFSET -25.438599 -2.830597 -13.032500
						CHANNELS 3 Xrotation Yrotation Zrotation
						JOINT newVegas:RightForeArm
						{
							OFFSET -29.960503 0.000000 0.000000
							CHANNELS 3 Xrotation Yrotation Zrotation
							JOINT newVegas:RightHand
							{
								OFFSET -27.849251 0.000000 0.000000
								CHANNELS 3 Xrotation Yrotation Zrotation
								JOINT newVegas:RightHandThumb1
								{
									OFFSET -4.487587 -3.305161 6.305391
									CHANNELS 3 Xrotation Yrotation Zrotation
									JOINT newVegas:RightHandThumb2
									{
										OFFSET -5.480453 -3.164139 3.164143
										CHANNELS 3 Xrotation Yrotation Zrotation
										JOINT newVegas:RightHandThumb3
										{
											OFFSET -5.159721 -2.978973 2.978967
											CHANNELS 3 Xrotation Yrotation Zrotation
											End Site
											{
												OFFSET -2.494507 5.926697 1.738678
											}
										}
									}
								}
								JOINT newVegas:RightHandIndex1
								{
									OFFSET -18.578728 -0.527832 5.208049
									CHANNELS 3 Xrotation Yrotation Zrotation
									JOINT newVegas:RightHandIndex2
									{
										OFFSET -3.192009 0.000000 0.000000
										CHANNELS 3 Xrotation Yrotation Zrotation
										JOINT newVegas:RightHandIndex3
										{
											OFFSET -3.835129 0.000000 0.000000
											CHANNELS 3 Xrotation Yrotation Zrotation
											End Site
											{
												OFFSET 0.034599 3.816971 0.371180
											}
										}
									}
								}
								JOINT newVegas:RightHandMiddle1
								{
									OFFSET -18.476105 0.000000 0.000000
									CHANNELS 3 Xrotation Yrotation Zrotation
									JOINT newVegas:RightHandMiddle2
									{
										OFFSET -3.324875 0.000000 0.000000
										CHANNELS 3 Xrotation Yrotation Zrotation
										JOINT newVegas:RightHandMiddle3
										{
											OFFSET -4.596550 0.000000 0.000000
											CHANNELS 3 Xrotation Yrotation Zrotation
											End Site
											{
												OFFSET -0.057701 4.578827 0.399218
											}
										}
									}
								}
								JOINT newVegas:RightHandRing1
								{
									OFFSET -17.732719 0.121887 -4.201567
									CHANNELS 3 Xrotation Yrotation Zrotation
									JOINT newVegas:RightHandRing2
									{
										OFFSET -2.733170 0.000000 0.000000
										CHANNELS 3 Xrotation Yrotation Zrotation
										JOINT newVegas:RightHandRing3
										{
											OFFSET -3.178268 0.000000 0.000000
											CHANNELS 3 Xrotation Yrotation Zrotation
											End Site
											{
												OFFSET -0.119102 3.170624 0.185394
											}
										}
									}
								}
								JOINT newVegas:RightHandPinky1
								{
									OFFSET -15.989624 -0.606689 -7.535461
									CHANNELS 3 Xrotation Yrotation Zrotation
									JOINT newVegas:RightHandPinky2
									{
										OFFSET -2.538986 0.000000 0.000000
										CHANNELS 3 Xrotation Yrotation Zrotation
										JOINT newVegas:RightHandPinky3
										{
											OFFSET -2.593102 0.000000 0.000000
											CHANNELS 3 Xrotation Yrotation Zrotation
											End Site
											{
												OFFSET 0.150902 2.584198 0.152708
											}
										}
									}
								}
							}
							JOINT newVegas:Right_CapeC
							{
								OFFSET -15.715958 -8.608795 -6.935905
								CHANNELS 3 Xrotation Yrotation Zrotation
								JOINT newVegas:Right_CapeC1
								{
									OFFSET 0.000000 -8.688499 0.000000
									CHANNELS 3 Xrotation Yrotation Zrotation
									End Site
									{
										OFFSET 0.000000 8.688499 0.000000
									}
								}
							}
							JOINT newVegas:Right_Sleeve
							{
								OFFSET -0.267448 -0.649994 0.577675
								CHANNELS 3 Xrotation Yrotation Zrotation
								End Site
								{
									OFFSET 0.000000 15.991302 0.000000
								}
							}
						}
						JOINT newVegas:Right_CapeA
						{
							OFFSET -5.115540 -8.608795 -10.395824
							CHANNELS 3 Xrotation Yrotation Zrotation
							JOINT newVegas:Right_CapeA1
							{
								OFFSET 0.000000 -8.688499 0.000000
								CHANNELS 3 Xrotation Yrotation Zrotation
								End Site
								{
									OFFSET 0.000000 8.688499 0.000000
								}
							}
						}
						JOINT newVegas:Right_CapeB
						{
							OFFSET -26.118187 -8.608795 -7.079266
							CHANNELS 3 Xrotation Yrotation Zrotation
							JOINT newVegas:Right_CapeB1
							{
								OFFSET 0.000000 -8.688499 0.000000
								CHANNELS 3 Xrotation Yrotation Zrotation
								End Site
								{
									OFFSET 0.000000 8.688499 0.000000
								}
							}
						}
					}
				}
				JOINT newVegas:Left_Collar
				{
					OFFSET 18.625099 8.655502 8.828100
					CHANNELS 3 Xrotation Yrotation Zrotation
					JOINT newVegas:Left_Collar1
					{
						OFFSET 14.783401 10.540405 -1.259500
						CHANNELS 3 Xrotation Yrotation Zrotation
						End Site
						{
							OFFSET 0.000000 18.199875 0.000000
						}
					}
				}
				JOINT newVegas:Collar_Back
				{
					OFFSET 0.000000 15.630707 -20.132601
					CHANNELS 3 Xrotation Yrotation Zrotation
					End Site
					{
						OFFSET 0.000000 22.523010 0.000000
					}
				}
				JOINT newVegas:Left_Peck
				{
					OFFSET 17.239599 -5.132599 25.482599
					CHANNELS 3 Xrotation Yrotation Zrotation
					End Site
					{
						OFFSET 0.000000 22.523010 0.000000
					}
				}
				JOINT newVegas:Right_Peck
				{
					OFFSET -17.239599 -5.132202 25.482599
					CHANNELS 3 Xrotation Yrotation Zrotation
					End Site
					{
						OFFSET 0.000000 22.523010 0.000000
					}
				}
				JOINT newVegas:Right_Collar
				{
					OFFSET -18.625099 8.655792 8.828100
					CHANNELS 3 Xrotation Yrotation Zrotation
					JOINT newVegas:Right_Collar1
					{
						OFFSET -14.783401 10.539993 -1.259500
						CHANNELS 3 Xrotation Yrotation Zrotation
						End Site
						{
							OFFSET 0.000000 18.199631 0.000000
						}
					}
				}
			}
		}
		JOINT newVegas:Belly
		{
			OFFSET 0.000000 -6.540398 9.014299
			CHANNELS 3 Xrotation Yrotation Zrotation
			End Site
			{
				OFFSET 0.000000 11.566666 0.000000
			}
		}
	}
	JOINT newVegas:ElvisFacialAnim_Joint
	{
		OFFSET 1.000000 -95.330101 -8.825800
		CHANNELS 3 Xrotation Yrotation Zrotation
		End Site
		{
			OFFSET 0.000000 35.315800 0.000000
		}
	}
}
MOTION
Frames: 4
Frame Time: 0.016667
0.904985 53.547920 -16.056686 35.859569 -0.327329 2.336385 -0.000001 0.000000 -0.000000 -99.192474 -17.940767 35.395546 125.622861 -1.904371 -1.012101 -29.494444 -15.405418 -23.706082 0.000001 0.000001 0.000000 -0.000003 -0.000001 0.000002 -124.553800 -8.666091 -11.784402 132.977554 3.943862 -1.315938 -14.745407 1.211500 -14.317537 -0.000001 0.000000 -0.000000 0.000001 0.000000 -0.000000 11.085144 0.415177 -2.266776 22.176794 0.436129 -4.312041 22.176805 0.436130 -4.312045 -4.852608 -0.432874 -0.019647 -4.852604 -0.432875 -0.019645 -0.000001 0.000000 -0.000000 -4.852550 -0.432869 -0.019652 -4.852563 -0.432877 -0.019649 0.000001 0.000000 0.000001 -0.000001 0.000000 -0.000001 0.640950 -3.294367 -0.953792 -15.835076 -34.689957 -16.373893 4.581141 -102.085312 2.759877 44.263270 29.883591 20.699394 11.125195 -10.607993 5.635056 13.047549 13.035006 -0.568281 -0.000000 -0.000006 -0.000004 2.762769 -9.722653 -4.298516 -0.734988 0.012667 -24.937169 -0.000000 0.000001 0.000002 0.691171 0.688879 -10.668324 -1.829431 -2.017386 -30.196014 -0.000000 -0.000000 0.000000 0.170524 9.516312 -23.800783 -0.026547 -3.190994 -36.374821 -0.000000 0.000001 -0.000001 0.671154 29.060826 -33.488124 0.187221 -6.380951 -42.445565 -0.000001 0.000002 0.000001 -0.000000 0.000000 0.000000 -0.000000 0.000000 0.000000 -0.000000 -0.000000 0.000001 -0.000001 0.000003 0.000001 -0.000001 0.000002 0.000000 -0.000001 0.000003 0.000001 -0.000001 0.000003 0.000001 5.833066 29.728016 10.839902 -38.904348 17.802031 21.911281 10.180173 60.700362 -18.967917 39.144890 -25.749552 -58.258092 -28.903103 10.876030 -5.700019 1.644021 -0.336638 -1.627249 0.000002 -0.000003 0.000001 -1.509178 6.134600 4.269183 0.284812 -2.247836 5.347508 0.000001 0.000001 -0.000001 -0.686665 -1.935916 4.591088 -0.718850 0.493062 15.506162 0.000002 0.000000 -0.000001 2.037180 -12.730994 11.026380 0.036370 2.329741 17.761646 0.000002 0.000002 0.000001 6.527998 -28.103845 17.554851 -0.488524 6.557332 19.904206 -0.000003 0.000005 0.000001 -0.000001 -0.000001 -0.000000 0.000000 -0.000001 -0.000002 -0.000001 -0.000001 0.000002 -0.000000 0.000002 -0.000000 -0.000000 0.000003 -0.000001 -0.000000 0.000002 -0.000000 -0.000001 0.000003 -0.000000 0.000000 -0.000000 0.000001 0.000000 -0.000000 0.000001 0.000000 -0.000000 0.000001 0.000000 -0.000000 0.000001 0.000000 -0.000000 0.000001 0.000000 -0.000000 0.000001 0.000000 -0.000000 0.000001 0.000002 0.000000 0.000000 -0.000001 0.000000 -0.000000 
0.943441 51.885170 -16.179962 37.257896 1.199736 2.131958 0.000000 0.000000 -0.000000 -92.727229 -18.611924 39.484258 125.793684 -5.001966 -1.324104 -35.408059 -13.086455 -27.788491 -0.000001 -0.000003 0.000001 -0.000000 0.000003 0.000002 -129.181772 -6.504339 -10.506024 135.893102 2.483845 -0.950421 -13.389667 0.528106 -12.097666 -0.000000 0.000000 -0.000000 0.000002 0.000001 -0.000000 10.523636 0.377211 -2.147433 21.050928 0.321394 -3.994273 21.050938 0.321397 -3.994272 -4.344355 -0.465993 -0.096701 -4.344369 -0.465996 -0.096699 -0.000001 -0.000000 0.000001 -4.344305 -0.465998 -0.096699 -4.344339 -0.465989 -0.096700 0.000004 -0.000000 0.000001 -0.000001 -0.000000 0.000001 0.343008 -2.949976 -1.792633 -16.403961 -37.051270 -18.318928 2.482947 -100.497587 0.139296 47.566414 27.306014 17.670589 11.188568 -11.111369 6.012807 11.620594 14.042180 -0.106115 0.000000 -0.000003 -0.000001 3.446703 -9.799935 -1.845116 -0.760092 -0.016591 -25.262903 -0.000001 0.000001 -0.000004 0.747685 0.207623 -8.580252 -1.876523 -2.032497 -30.535129 -0.000002 0.000001 -0.000001 0.085840 9.613127 -22.173784 -0.014838 -3.214888 -36.633832 -0.000000 0.000001 0.000001 -0.053528 29.550513 -31.903383 0.218736 -6.412763 -42.751493 -0.000001 -0.000002 0.000000 -0.000001 0.000002 0.000003 -0.000001 0.000002 0.000003 -0.000001 0.000002 0.000003 -0.000000 -0.000003 -0.000000 -0.000000 -0.000003 -0.000002 -0.000000 -0.000003 -0.000000 -0.000000 -0.000003 -0.000002 5.774376 29.321384 12.382902 -39.766113 19.774405 22.445559 8.302419 57.691650 -16.019503 40.345244 -23.597515 -59.666238 -31.298164 12.346678 -7.537894 1.803071 -0.055175 -1.277182 0.000002 0.000000 -0.000000 -1.571551 6.221608 2.837443 0.274711 -2.142569 6.406116 -0.000004 -0.000000 -0.000000 -0.726560 -1.842128 4.353597 -0.734674 0.515568 15.825666 0.000000 0.000000 0.000001 2.017725 -12.871187 10.562714 0.036065 2.354638 18.021459 0.000000 -0.000001 -0.000001 6.575649 -28.588184 17.176295 -0.497804 6.579903 20.205325 0.000001 0.000005 0.000001 -0.000001 -0.000002 0.000003 -0.000001 -0.000001 0.000001 -0.000001 -0.000002 0.000003 -0.000001 0.000000 0.000001 -0.000001 0.000001 -0.000000 -0.000001 0.000000 0.000001 -0.000001 0.000001 0.000000 -0.000000 0.000000 -0.000000 -0.000000 0.000000 -0.000000 -0.000000 0.000000 -0.000000 -0.000000 0.000000 -0.000000 -0.000000 0.000000 -0.000000 -0.000000 0.000000 -0.000000 -0.000000 0.000000 -0.000000 -0.000001 -0.000000 -0.000000 0.000000 0.000000 -0.000000 
1.036794 50.442551 -16.341137 38.522533 2.545702 1.885393 0.000000 -0.000000 -0.000000 -89.836474 -19.312727 42.051023 125.933962 -7.081290 -1.560213 -38.362184 -12.245600 -30.129850 0.000001 0.000000 0.000000 -0.000001 -0.000001 0.000001 -133.457812 -4.698286 -9.475948 138.398320 1.470131 -0.714955 -12.124580 -0.119238 -10.223709 0.000001 0.000000 -0.000000 -0.000000 0.000001 -0.000000 9.882805 0.363249 -1.962101 19.767520 0.228246 -3.621572 19.767507 0.228246 -3.621572 -3.855638 -0.494879 -0.169908 -3.855585 -0.494878 -0.169910 -0.000001 -0.000000 0.000000 -3.855588 -0.494866 -0.169907 -3.855614 -0.494889 -0.169907 -0.000002 0.000000 0.000001 -0.000001 -0.000000 0.000000 0.020287 -2.572768 -2.855806 -17.018373 -39.190492 -20.988102 0.982883 -97.925078 -1.973265 50.723461 23.806848 15.248153 11.263550 -11.681019 6.443936 9.567409 15.252096 0.466266 0.000001 -0.000008 -0.000002 4.242358 -9.839373 0.880828 -0.788965 -0.049306 -25.632411 0.000001 0.000000 0.000005 0.850832 -0.260225 -6.350877 -1.929588 -2.048766 -30.911964 -0.000002 0.000001 -0.000000 0.007505 9.769565 -20.426804 -0.002238 -3.242832 -36.940132 0.000001 0.000001 -0.000000 -0.979643 29.990418 -30.003911 0.254548 -6.449650 -43.107912 0.000000 0.000000 0.000000 -0.000001 -0.000001 -0.000001 -0.000001 -0.000001 -0.000001 -0.000001 -0.000001 -0.000001 -0.000001 0.000002 -0.000002 -0.000001 0.000000 0.000001 -0.000001 0.000002 -0.000002 -0.000001 0.000002 -0.000001 5.824590 28.867788 13.884147 -39.853105 20.536062 22.693068 6.574749 55.607715 -13.152804 41.209977 -21.195281 -61.261196 -33.487031 13.898095 -9.125763 2.049871 0.409614 -0.803317 0.000002 -0.000003 -0.000001 -1.697768 6.426629 1.495232 0.265368 -2.026619 7.570310 -0.000000 0.000001 0.000001 -0.774790 -1.732082 4.150761 -0.747652 0.537087 16.125680 0.000003 0.000001 -0.000000 1.998265 -12.963667 10.222179 0.036638 2.380252 18.283469 0.000001 0.000001 0.000000 6.654027 -29.138519 16.814420 -0.510096 6.601666 20.511398 -0.000000 0.000001 0.000002 0.000001 -0.000000 0.000000 0.000000 -0.000000 -0.000002 0.000001 -0.000000 0.000002 -0.000001 0.000000 -0.000003 -0.000001 0.000001 -0.000003 -0.000001 0.000000 -0.000003 -0.000001 0.000001 -0.000003 -0.000000 0.000000 -0.000001 -0.000000 0.000000 -0.000001 -0.000000 0.000000 -0.000001 -0.000000 0.000000 -0.000001 -0.000000 0.000000 -0.000001 -0.000000 0.000000 -0.000001 -0.000000 0.000000 -0.000001 0.000001 0.000000 0.000000 0.000000 -0.000000 -0.000000 
1.094880 49.340042 -16.497776 39.637261 3.725394 1.636882 -0.000002 0.000000 -0.000000 -92.336747 -20.896110 42.089586 127.166251 -7.261935 -1.620742 -37.928300 -13.527988 -30.538599 0.000000 0.000001 -0.000001 -0.000003 0.000001 0.000000 -136.744827 -3.515008 -9.125311 140.397762 0.730036 -0.608617 -11.777920 -0.713196 -9.026412 -0.000001 -0.000000 0.000000 -0.000001 -0.000000 -0.000001 9.204017 0.333600 -1.724364 18.408721 0.142229 -3.175028 18.408690 0.142229 -3.175025 -3.401297 -0.518363 -0.237451 -3.401300 -0.518363 -0.237444 0.000000 0.000000 0.000000 -3.401252 -0.518349 -0.237451 -3.401364 -0.518376 -0.237445 0.000001 -0.000000 0.000001 0.000000 0.000000 0.000000 -0.284222 -2.135470 -4.160781 -17.677310 -40.741901 -24.178907 -0.080754 -94.687896 -3.562282 53.370156 19.581293 13.653763 11.343363 -12.273128 6.900012 6.708294 16.475125 1.460185 0.000003 -0.000003 0.000000 5.234344 -9.820467 4.263366 -0.819165 -0.080979 -26.000239 -0.000001 0.000002 -0.000001 1.074205 -0.480999 -4.034317 -1.984929 -2.064401 -31.305117 -0.000000 0.000001 -0.000001 -0.066294 10.084467 -18.359064 0.011145 -3.271450 -37.253402 0.000001 -0.000001 0.000000 -2.129069 30.421355 -27.650960 0.291459 -6.488851 -43.471234 -0.000000 -0.000002 0.000000 0.000000 -0.000001 -0.000001 0.000000 -0.000001 -0.000001 -0.000000 -0.000001 -0.000000 -0.000000 0.000001 -0.000002 -0.000000 0.000000 0.000000 -0.000000 0.000001 -0.000002 -0.000000 0.000001 -0.000003 5.973605 28.508236 15.261351 -39.460564 20.823672 22.407585 5.371269 54.315638 -10.616635 41.903935 -19.438129 -62.692770 -34.145618 14.695644 -8.490570 2.362726 0.806165 -0.204919 -0.000000 -0.000000 -0.000001 -1.881055 6.920235 0.918372 0.258630 -1.909414 8.741232 0.000000 0.000000 -0.000000 -0.827269 -1.607678 4.041268 -0.757725 0.556766 16.394281 0.000000 0.000000 -0.000002 1.986219 -12.991875 10.062155 0.038636 2.401874 18.499108 0.000001 -0.000001 -0.000001 6.755807 -29.733524 16.485428 -0.523432 6.614818 20.722041 0.000001 0.000003 0.000003 -0.000001 -0.000001 -0.000000 -0.000001 -0.000002 0.000001 -0.000001 -0.000001 0.000002 0.000001 -0.000001 -0.000001 0.000001 0.000000 -0.000002 0.000001 -0.000001 -0.000001 0.000001 -0.000000 -0.000002 -0.000001 -0.000000 -0.000001 -0.000001 -0.000000 -0.000001 -0.000001 -0.000000 -0.000001 -0.000001 -0.000000 -0.000001 -0.000001 -0.000000 -0.000001 -0.000001 -0.000000 -0.000001 -0.000001 -0.000000 -0.000001 -0.000000 -0.000000 0.000000 -0.000002 0.000000 -0.000000 
